<svg width="18" height="14" viewBox="0 0 18 14" fill="none" xmlns="http://www.w3.org/2000/svg">
<path d="M17.8094 3.91256C17.9683 4.06853 18.0278 4.2557 17.9881 4.47406L17.2335 7.8743C17.207 8.05112 17.1044 8.19664 16.9257 8.31102C16.747 8.4254 16.5452 8.48259 16.3201 8.48259H5.31892L5.10048 9.44963H15.5854C15.8369 9.44963 16.0552 9.51981 16.2406 9.66019C16.426 9.80056 16.5186 9.97473 16.5186 10.1827C16.5186 10.3907 16.426 10.5648 16.2406 10.7052C16.0552 10.8456 15.8369 10.9158 15.5854 10.9158H3.98845C3.71044 10.9158 3.47215 10.8274 3.27357 10.6507C3.08824 10.4739 3.01542 10.2711 3.05514 10.0424L3.55158 7.92117L2.79699 1.96295L0.652361 1.43264C0.400831 1.37025 0.218802 1.25065 0.106275 1.0739C-0.00625149 0.897108 -0.0294188 0.709966 0.0367735 0.5124C0.116204 0.314834 0.271756 0.171859 0.503429 0.0834744C0.735102 -0.00491025 0.970084 -0.0231071 1.20838 0.0288839L3.94874 0.715165C4.12084 0.756758 4.26315 0.834744 4.37568 0.949124C4.4882 1.0635 4.5577 1.19351 4.58418 1.33908L4.74304 2.52448L17.1739 3.61629C17.452 3.64741 17.6638 3.74619 17.8094 3.91256ZM5.39838 11.3213C5.79553 11.3213 6.13311 11.4305 6.41112 11.6489C6.68913 11.8672 6.82813 12.1324 6.82813 12.4444C6.82813 12.7562 6.68913 13.0241 6.41112 13.2476C6.13311 13.4712 5.79553 13.583 5.39838 13.583C5.00122 13.583 4.66364 13.4712 4.38564 13.2476C4.10763 13.0241 3.96863 12.7563 3.96863 12.4444C3.96863 12.1324 4.10763 11.8672 4.38564 11.6489C4.66361 11.4305 5.00119 11.3213 5.39838 11.3213ZM13.8776 11.3213C14.2747 11.3213 14.6123 11.4305 14.8903 11.6489C15.1682 11.8672 15.3074 12.1324 15.3074 12.4444C15.3074 12.7562 15.1683 13.0241 14.8903 13.2476C14.6123 13.4712 14.2747 13.583 13.8776 13.583C13.4804 13.583 13.1428 13.4712 12.8649 13.2476C12.5869 13.0241 12.4478 12.7563 12.4478 12.4444C12.4478 12.1324 12.5868 11.8672 12.8649 11.6489C13.1428 11.4305 13.4804 11.3213 13.8776 11.3213Z" fill="white"/>
</svg>
